<svg xmlns="http://www.w3.org/2000/svg" viewBox="0 0 32 32" id="activity">
  <defs>
    <linearGradient id="a" x1="11.92" x2="20.33" y1="23.067" y2="8.5" gradientUnits="userSpaceOnUse">
      <stop offset="0" stop-color="#3cacb6"></stop>
      <stop offset="1" stop-color="#8ccead"></stop>
    </linearGradient>
  </defs>
  <path fill="url(#a)" d="M19,27h-.023c-.45-.011-.837-.32-.947-.758L13.912,9.772l-1.954,6.515c-.127,.423-.517,.713-.958,.713H3c-.552,0-1-.447-1-1s.448-1,1-1h7.256l2.786-9.287c.129-.432,.537-.701,.981-.713,.45,.011,.837,.32,.947,.758l4.118,16.47,1.954-6.515c.127-.423,.517-.713,.958-.713h7c.552,0,1,.447,1,1s-.448,1-1,1h-6.256l-2.786,9.287c-.127,.424-.517,.713-.958,.713Z"></path>
</svg>
